<svg xmlns="http://www.w3.org/2000/svg" width="18.131" height="19.642" viewBox="0 0 18.131 19.642">
  <g id="noun-add-user-3650065" transform="translate(-111.954 -27.442)">
    <path id="Path_466" data-name="Path 466" d="M127.5,39.745a7.586,7.586,0,0,0-4.722-4.349,4.5,4.5,0,0,0,1.63-3.48,4.384,4.384,0,1,0-8.767,0,4.5,4.5,0,0,0,1.63,3.48,7.518,7.518,0,0,0-3.477,2.308,7.761,7.761,0,0,0-1.837,5.022v1.2a2.01,2.01,0,0,0,1.986,2.027h9.844a3.631,3.631,0,0,0,2.624,1.126,3.764,3.764,0,0,0,1.09-7.339Zm-10.983-7.828a3.507,3.507,0,1,1,3.507,3.58A3.548,3.548,0,0,1,116.514,31.917Zm-2.572,13.146a1.122,1.122,0,0,1-1.109-1.132v-1.2a6.77,6.77,0,0,1,5.516-6.674,4.3,4.3,0,0,0,3.349,0,6.647,6.647,0,0,1,4.754,3.526h-.04a3.719,3.719,0,0,0-3.677,3.754,3.806,3.806,0,0,0,.416,1.733h-9.209Zm12.468,1.126a2.86,2.86,0,1,1,2.8-2.859A2.834,2.834,0,0,1,126.41,46.189Z" fill="#004669"/>
    <path id="Path_467" data-name="Path 467" d="M432.682,376.287v-1.528a.453.453,0,0,0-.905,0v1.528h-1.528a.453.453,0,0,0,0,.905h1.528v1.528a.453.453,0,0,0,.905,0v-1.528h1.528a.453.453,0,1,0,0-.905Z" transform="translate(-305.947 -333.462)" fill="#004669"/>
  </g>
</svg>
