<svg xmlns="http://www.w3.org/2000/svg" xmlns:xlink="http://www.w3.org/1999/xlink" width="42" height="42" viewBox="0 0 42 42">
  <defs>
    <filter id="Ellipse_4" x="0" y="0" width="42" height="42" filterUnits="userSpaceOnUse">
      <feOffset dy="3" input="SourceAlpha"/>
      <feGaussianBlur stdDeviation="3" result="blur"/>
      <feFlood flood-color="#b9b2b2" flood-opacity="0.278"/>
      <feComposite operator="in" in2="blur"/>
      <feComposite in="SourceGraphic"/>
    </filter>
    <filter id="Path_69" x="4" y="4" width="34" height="34" filterUnits="userSpaceOnUse">
      <feOffset dy="3" input="SourceAlpha"/>
      <feGaussianBlur stdDeviation="3" result="blur-2"/>
      <feFlood flood-color="#b9b2b2" flood-opacity="0.278"/>
      <feComposite operator="in" in2="blur-2"/>
    </filter>
    <filter id="Path_70" x="7.786" y="5.088" width="26.201" height="31.823" filterUnits="userSpaceOnUse">
      <feOffset dy="3" input="SourceAlpha"/>
      <feGaussianBlur stdDeviation="3" result="blur-3"/>
      <feFlood flood-color="#b9b2b2" flood-opacity="0.278"/>
      <feComposite operator="in" in2="blur-3"/>
      <feComposite in="SourceGraphic"/>
    </filter>
  </defs>
  <g id="Group_1252" data-name="Group 1252" transform="translate(9 6)">
    <g transform="matrix(1, 0, 0, 1, -9, -6)" filter="url(#Ellipse_4)">
      <g id="Ellipse_4-2" data-name="Ellipse 4" transform="translate(9 6)" fill="none" stroke="#fff" stroke-width="2">
        <circle cx="12" cy="12" r="12" stroke="none"/>
        <circle cx="12" cy="12" r="11" fill="none"/>
      </g>
    </g>
    <g id="arrow_back_ios_black_24dp" transform="translate(4 4)">
      <g transform="matrix(1, 0, 0, 1, -13, -10)" filter="url(#Path_69)">
        <path id="Path_69-2" data-name="Path 69" d="M0,0H16V16H0Z" transform="translate(13 10)" fill="#fff"/>
      </g>
      <g transform="matrix(1, 0, 0, 1, -13, -10)" filter="url(#Path_70)">
        <path id="Path_70-2" data-name="Path 70" d="M7.5,3.272,6.365,2.1,0,8.653l6.365,6.553L7.5,14.034,2.276,8.653Z" transform="translate(17.13 9.35)" fill="#fff" stroke="#fff" stroke-width="0.5"/>
      </g>
    </g>
  </g>
</svg>
