<svg xmlns="http://www.w3.org/2000/svg" xmlns:xlink="http://www.w3.org/1999/xlink" width="42" height="42" viewBox="0 0 42 42">
  <defs>
    <filter id="Ellipse_4" x="0" y="0" width="42" height="42" filterUnits="userSpaceOnUse">
      <feOffset dy="3" input="SourceAlpha"/>
      <feGaussianBlur stdDeviation="3" result="blur"/>
      <feFlood flood-color="#6b6b6b" flood-opacity="0.431"/>
      <feComposite operator="in" in2="blur"/>
    </filter>
    <filter id="Ellipse_4-2" x="0" y="0" width="42" height="42" filterUnits="userSpaceOnUse">
      <feOffset dy="3" input="SourceAlpha"/>
      <feGaussianBlur stdDeviation="3" result="blur-2"/>
      <feFlood flood-color="#070606" flood-opacity="0.534" result="color"/>
      <feComposite operator="out" in="SourceGraphic" in2="blur-2"/>
      <feComposite operator="in" in="color"/>
      <feComposite operator="in" in2="SourceGraphic"/>
    </filter>
    <filter id="Path_69" x="4" y="4" width="34" height="34" filterUnits="userSpaceOnUse">
      <feOffset dy="3" input="SourceAlpha"/>
      <feGaussianBlur stdDeviation="3" result="blur-3"/>
      <feFlood flood-color="#b9b2b2" flood-opacity="0.278"/>
      <feComposite operator="in" in2="blur-3"/>
    </filter>
    <filter id="Path_70" x="8.013" y="5.088" width="26.201" height="31.823" filterUnits="userSpaceOnUse">
      <feOffset dy="3" input="SourceAlpha"/>
      <feGaussianBlur stdDeviation="3" result="blur-4"/>
      <feFlood flood-color="#b9b2b2" flood-opacity="0.278"/>
      <feComposite operator="in" in2="blur-4"/>
      <feComposite in="SourceGraphic"/>
    </filter>
  </defs>
  <g id="Group_1252" data-name="Group 1252" transform="translate(9 6)">
    <g data-type="innerShadowGroup">
      <g transform="matrix(1, 0, 0, 1, -9, -6)" filter="url(#Ellipse_4)">
        <g id="Ellipse_4-3" data-name="Ellipse 4" transform="translate(9 6)" fill="rgba(94,80,80,0.65)" stroke="#fff" stroke-width="2" opacity="0.81">
          <circle cx="12" cy="12" r="12" stroke="none"/>
          <circle cx="12" cy="12" r="11" fill="none"/>
        </g>
      </g>
      <circle id="Ellipse_4-4" data-name="Ellipse 4" cx="12" cy="12" r="12" fill="rgba(94,80,80,0.65)" opacity="0.81"/>
      <g transform="matrix(1, 0, 0, 1, -9, -6)" filter="url(#Ellipse_4-2)">
        <circle id="Ellipse_4-5" data-name="Ellipse 4" cx="12" cy="12" r="12" transform="translate(9 6)" fill="#fff" opacity="0.81"/>
      </g>
      <g id="Ellipse_4-6" data-name="Ellipse 4" fill="none" stroke="#fff" stroke-width="2" opacity="0.81">
        <circle cx="12" cy="12" r="12" stroke="none"/>
        <circle cx="12" cy="12" r="11" fill="none"/>
      </g>
    </g>
    <g id="arrow_back_ios_black_24dp" transform="translate(4 4)">
      <g transform="matrix(1, 0, 0, 1, -13, -10)" filter="url(#Path_69)">
        <path id="Path_69-2" data-name="Path 69" d="M16,0H0V16H16Z" transform="translate(13 10)" fill="#fff"/>
      </g>
      <g transform="matrix(1, 0, 0, 1, -13, -10)" filter="url(#Path_70)">
        <path id="Path_70-2" data-name="Path 70" d="M0,3.272,1.138,2.1,7.5,8.653,1.138,15.206,0,14.034,5.227,8.653Z" transform="translate(17.36 9.35)" fill="#fff" stroke="#fff" stroke-width="0.5"/>
      </g>
    </g>
  </g>
</svg>
