<svg xmlns="http://www.w3.org/2000/svg" width="17.872" height="19.455" viewBox="0 0 17.872 19.455">
  <g id="noun-user-login-5087875" transform="translate(-144.198 -55.99)">
    <path id="Path_504" data-name="Path 504" d="M217.735,68a6.007,6.007,0,1,0-6-6.009A6.014,6.014,0,0,0,217.735,68Zm-5.557-6.009a5.557,5.557,0,1,1,9.844,3.529,4.613,4.613,0,0,0-8.582,0,5.556,5.556,0,0,1-1.262-3.526Z" transform="translate(-64.6)" fill="#004669"/>
    <path id="Path_505" data-name="Path 505" d="M301.791,103.215a2.186,2.186,0,1,0-2.189-2.184A2.184,2.184,0,0,0,301.791,103.215Z" transform="translate(-148.656 -40.992)" fill="#004669"/>
    <path id="Path_506" data-name="Path 506" d="M161.849,368.31H144.421a.223.223,0,0,0-.224.224V370.7a.223.223,0,0,0,.224.224h17.424a.223.223,0,0,0,.224-.224v-2.167a.223.223,0,0,0-.221-.224Zm-.224,2.167H144.645v-1.719h16.977v1.719Z" transform="translate(0 -298.757)" fill="#004669"/>
    <path id="Path_507" data-name="Path 507" d="M161.849,443.8H144.421a.223.223,0,0,0-.224.224v2.167a.223.223,0,0,0,.224.224h17.424a.223.223,0,0,0,.224-.224v-2.167a.224.224,0,0,0-.221-.224Zm-.224,2.167H144.645v-1.719h16.977v1.719Z" transform="translate(0 -370.969)" fill="#004669"/>
    <path id="Path_508" data-name="Path 508" d="M162.54,383.535l.173.056-.107.148a.222.222,0,0,0,.051.311.224.224,0,0,0,.311-.051l.1-.146.1.146a.221.221,0,0,0,.18.092.239.239,0,0,0,.131-.041.225.225,0,0,0,.051-.311l-.107-.148.173-.056a.224.224,0,1,0-.139-.426l-.173.056v-.18a.224.224,0,0,0-.447,0v.18l-.17-.056a.225.225,0,0,0-.282.143A.228.228,0,0,0,162.54,383.535Z" transform="translate(-17.397 -312.581)" fill="#004669"/>
    <path id="Path_509" data-name="Path 509" d="M200.08,383.535l.173.056-.107.148a.222.222,0,0,0,.051.311.224.224,0,0,0,.311-.051l.1-.146.1.146a.221.221,0,0,0,.18.092.233.233,0,0,0,.131-.041.225.225,0,0,0,.051-.311l-.107-.148.173-.056a.224.224,0,1,0-.139-.426l-.173.056v-.18a.224.224,0,0,0-.447,0v.18l-.17-.056a.225.225,0,0,0-.282.143.23.23,0,0,0,.146.282Z" transform="translate(-53.307 -312.581)" fill="#004669"/>
    <path id="Path_510" data-name="Path 510" d="M237.6,383.535l.173.056-.107.148a.222.222,0,0,0,.051.311.224.224,0,0,0,.311-.051l.1-.146.1.146a.221.221,0,0,0,.18.092.233.233,0,0,0,.131-.041.225.225,0,0,0,.051-.311l-.107-.148.173-.056a.224.224,0,0,0-.139-.426l-.173.056v-.18a.224.224,0,0,0-.448,0v.18l-.17-.056a.225.225,0,0,0-.282.143A.23.23,0,0,0,237.6,383.535Z" transform="translate(-89.197 -312.581)" fill="#004669"/>
    <path id="Path_511" data-name="Path 511" d="M275.12,383.535l.173.056-.107.148a.222.222,0,0,0,.051.311.224.224,0,0,0,.311-.051l.1-.146.1.146a.221.221,0,0,0,.18.092.233.233,0,0,0,.131-.041.225.225,0,0,0,.051-.311l-.107-.148.173-.056a.224.224,0,0,0-.139-.426l-.173.056v-.18a.224.224,0,0,0-.448,0v.18l-.17-.056a.225.225,0,0,0-.282.143A.23.23,0,0,0,275.12,383.535Z" transform="translate(-125.088 -312.581)" fill="#004669"/>
    <path id="Path_512" data-name="Path 512" d="M312.641,383.535l.173.056-.107.148a.222.222,0,0,0,.051.311.224.224,0,0,0,.311-.051l.1-.146.1.146a.222.222,0,0,0,.18.092.239.239,0,0,0,.131-.041.225.225,0,0,0,.051-.311l-.107-.148.173-.056a.224.224,0,1,0-.139-.426l-.173.056v-.18a.224.224,0,0,0-.447,0v.18l-.17-.056a.225.225,0,0,0-.282.143A.231.231,0,0,0,312.641,383.535Z" transform="translate(-160.98 -312.581)" fill="#004669"/>
    <path id="Path_513" data-name="Path 513" d="M350.169,383.535l.173.056-.107.148a.222.222,0,0,0,.051.311.216.216,0,0,0,.131.041.218.218,0,0,0,.18-.092l.1-.146.1.146a.221.221,0,0,0,.18.092.239.239,0,0,0,.131-.041.225.225,0,0,0,.051-.311l-.107-.148.173-.056a.224.224,0,1,0-.139-.426l-.173.056v-.18a.224.224,0,0,0-.448,0v.18l-.17-.056a.225.225,0,0,0-.282.143A.23.23,0,0,0,350.169,383.535Z" transform="translate(-196.878 -312.581)" fill="#004669"/>
    <path id="Path_514" data-name="Path 514" d="M387.716,383.535l.173.056-.107.148a.222.222,0,0,0,.051.311.224.224,0,0,0,.311-.051l.1-.146.1.146a.221.221,0,0,0,.18.092.239.239,0,0,0,.131-.041.225.225,0,0,0,.051-.311l-.107-.148.173-.056a.224.224,0,1,0-.139-.426l-.173.056v-.18a.224.224,0,0,0-.448,0v.18l-.17-.056a.223.223,0,1,0-.136.426Z" transform="translate(-232.793 -312.581)" fill="#004669"/>
  </g>
</svg>
