<svg xmlns="http://www.w3.org/2000/svg" width="16" height="16" viewBox="0 0 16 16">
  <g id="noun-logout-1027055" transform="translate(-167.886 -69.999)">
    <path id="Path_517" data-name="Path 517" d="M177.839,131.06a.293.293,0,0,0-.349.182.249.249,0,0,0,.21.3,7.524,7.524,0,0,1,4.232,2.507,5.8,5.8,0,0,1,1.352,4.28,6.2,6.2,0,0,1-2.609,4.377,8.171,8.171,0,0,1-5.414,1.495,7.814,7.814,0,0,1-5.047-2.263,5.88,5.88,0,0,1-1.723-4.7,5.993,5.993,0,0,1,1.712-3.6,7.663,7.663,0,0,1,3.808-2.089.248.248,0,0,0,.206-.3.293.293,0,0,0-.35-.179,8.256,8.256,0,0,0-4.1,2.251,6.459,6.459,0,0,0-1.847,3.879,6.336,6.336,0,0,0,1.859,5.059,8.421,8.421,0,0,0,5.439,2.438,8.8,8.8,0,0,0,5.833-1.612,6.677,6.677,0,0,0,2.812-4.717,6.253,6.253,0,0,0-1.457-4.611,8.11,8.11,0,0,0-4.561-2.7Z" transform="translate(0 -58.727)" fill="#004669"/>
    <path id="Path_518" data-name="Path 518" d="M343.97,70.25a.268.268,0,0,0-.535,0v5.423a.268.268,0,0,0,.535,0Z" transform="translate(-167.817)" fill="#004669"/>
  </g>
</svg>
