<svg xmlns="http://www.w3.org/2000/svg" width="16" height="16" viewBox="0 0 16 16">
  <g id="noun-user-info-2320535" transform="translate(-122.503 -43.749)">
    <path id="Path_733" data-name="Path 733" d="M135.182,52.98h-.025a6.989,6.989,0,0,0-2.886-2.459,4.024,4.024,0,0,0,1.1-2.772,3.925,3.925,0,1,0-7.849,0,4.022,4.022,0,0,0,1.1,2.772,7.1,7.1,0,0,0-4.115,6.15l-.008.308a2.136,2.136,0,0,0,2.113,2.154h8.663a3.258,3.258,0,0,0,1.9.615,3.385,3.385,0,0,0,0-6.769Zm-9.055-5.23a3.321,3.321,0,1,1,3.321,3.384A3.358,3.358,0,0,1,126.127,47.75Zm-1.511,10.769a1.524,1.524,0,0,1-1.508-1.463V56.98a6.479,6.479,0,0,1,4.028-6.006,3.836,3.836,0,0,0,4.624,0,6.356,6.356,0,0,1,2.7,2.09,3.406,3.406,0,0,0-1.833,5.455Zm10.566.615a2.77,2.77,0,1,1,2.717-2.769A2.748,2.748,0,0,1,135.182,59.134Z" fill="#004669"/>
    <path id="Path_734" data-name="Path 734" d="M480.3,348.651a.4.4,0,1,1-.4-.4.4.4,0,0,1,.4.4" transform="translate(-344.744 -293.838)" fill="#004669"/>
    <path id="Path_735" data-name="Path 735" d="M465.208,378.292h-.292V376.25h-.875a.292.292,0,0,0,0,.583h.292v1.458h-.292a.292.292,0,1,0,0,.583h1.167a.292.292,0,0,0,0-.583Z" transform="translate(-329.38 -320.798)" fill="#004669"/>
  </g>
</svg>
