<svg xmlns="http://www.w3.org/2000/svg" width="16" height="16" viewBox="0 0 16 16">
  <g id="noun-menu-4667627" transform="translate(-91.88 -21.875)">
    <path id="Path_652" data-name="Path 652" d="M97.5,21.875H93.608A1.728,1.728,0,0,0,91.88,23.6v3.888a1.728,1.728,0,0,0,1.728,1.728H97.5a1.728,1.728,0,0,0,1.728-1.728V23.6A1.728,1.728,0,0,0,97.5,21.875Zm.864,5.616a.864.864,0,0,1-.864.864H93.608a.864.864,0,0,1-.864-.864V23.6a.864.864,0,0,1,.864-.864H97.5a.864.864,0,0,1,.864.864Z" fill="#004669"/>
    <path id="Path_653" data-name="Path 653" d="M390.616,21.875h-3.888A1.728,1.728,0,0,0,385,23.6v3.888a1.728,1.728,0,0,0,1.728,1.728h3.888a1.728,1.728,0,0,0,1.728-1.728V23.6a1.728,1.728,0,0,0-1.728-1.728Zm.864,5.616a.864.864,0,0,1-.864.864h-3.888a.864.864,0,0,1-.864-.864V23.6a.864.864,0,0,1,.864-.864h3.888a.864.864,0,0,1,.864.864Z" transform="translate(-284.464)" fill="#004669"/>
    <path id="Path_654" data-name="Path 654" d="M97.5,315H93.608a1.728,1.728,0,0,0-1.728,1.728v3.888a1.728,1.728,0,0,0,1.728,1.728H97.5a1.728,1.728,0,0,0,1.728-1.728v-3.888A1.728,1.728,0,0,0,97.5,315Zm.864,5.616a.864.864,0,0,1-.864.864H93.608a.864.864,0,0,1-.864-.864v-3.888a.864.864,0,0,1,.864-.864H97.5a.864.864,0,0,1,.864.864Z" transform="translate(0 -284.469)" fill="#004669"/>
    <path id="Path_655" data-name="Path 655" d="M391.048,317.379h-1.08V316.3a1.3,1.3,0,1,0-2.592,0v1.08H386.3a1.3,1.3,0,1,0,0,2.592h1.08v1.08a1.3,1.3,0,1,0,2.592,0v-1.08h1.08a1.3,1.3,0,1,0,0-2.592Zm0,1.728h-1.512a.432.432,0,0,0-.432.432v1.512a.432.432,0,1,1-.864,0v-1.512a.432.432,0,0,0-.432-.432H386.3a.432.432,0,1,1,0-.864h1.512a.432.432,0,0,0,.432-.432V316.3a.432.432,0,0,1,.864,0v1.512a.432.432,0,0,0,.432.432h1.512a.432.432,0,0,1,0,.864Z" transform="translate(-284.464 -284.472)" fill="#004669"/>
  </g>
</svg>
