<svg xmlns="http://www.w3.org/2000/svg" width="16" height="16" viewBox="0 0 16 16">
  <g id="noun-wishlist-3592864" transform="translate(-113.988 -36.163)">
    <path id="Path_557" data-name="Path 557" d="M281,98.094a1.8,1.8,0,0,0-1.229.516.578.578,0,0,1-.743,0A1.8,1.8,0,0,0,277.8,98.1a2.015,2.015,0,0,0-1.333.49,1.463,1.463,0,0,0,.182,2.3l2.751,1.847,2.751-1.848a1.461,1.461,0,0,0,.182-2.3A2.014,2.014,0,0,0,281,98.094Zm.071-.773a3.333,3.333,0,0,1,2.011.768,2.068,2.068,0,0,1-.264,3.356l-2.894,1.942a1,1,0,0,1-1.056,0l-2.889-1.942a2.069,2.069,0,0,1-.263-3.356,3.284,3.284,0,0,1,1.952-.765,2.673,2.673,0,0,1,1.732.545,2.626,2.626,0,0,1,1.672-.548Z" transform="translate(-156.556 -59.15)" fill="#004669"/>
    <path id="Path_558" data-name="Path 558" d="M419.674,438.213a.668.668,0,1,1-.825.65A.754.754,0,0,1,419.674,438.213Zm0-.772a1.463,1.463,0,1,0,1.809,1.423A1.65,1.65,0,0,0,419.674,437.441Z" transform="translate(-294.11 -388.122)" fill="#004669"/>
    <path id="Path_559" data-name="Path 559" d="M278.162,438.213a.668.668,0,1,1-.825.65A.755.755,0,0,1,278.162,438.213Zm0-.772a1.463,1.463,0,1,0,1.809,1.423A1.649,1.649,0,0,0,278.162,437.441Z" transform="translate(-157.147 -388.122)" fill="#004669"/>
    <path id="Path_560" data-name="Path 560" d="M114.4,36.163h-.041a.383.383,0,0,0-.164.723l1.575.863a.6.6,0,0,1,.29.359l2.624,9.075a2.1,2.1,0,0,0,2.025,1.486h6.6a.386.386,0,1,0,0-.771h-6.6a1.3,1.3,0,0,1-1.256-.921l-.126-.439h6.912A2.252,2.252,0,0,0,128.4,44.99l.9-2.857.669-2.13a.4.4,0,0,0-.762-.225l-.67,2.132-.9,2.856a1.451,1.451,0,0,1-1.4,1H119.1L116.83,37.9a1.378,1.378,0,0,0-.666-.822l-1.574-.862a.422.422,0,0,0-.19-.053Z" fill="#004669"/>
  </g>
</svg>
