<svg xmlns="http://www.w3.org/2000/svg" width="16" height="16" viewBox="0 0 16 16">
  <g id="noun-contact-book-4385323" transform="translate(-162.511 -83.994)">
    <path id="Path_647" data-name="Path 647" d="M177.212,83.994H165.1a1.274,1.274,0,0,0-1.3,1.243v1.154c-.774.086-1.292.442-1.292.9s.536.819,1.292.9v1.328c-.774.086-1.292.442-1.292.9s.536.818,1.292.9v1.329c-.774.086-1.292.441-1.292.9s.536.818,1.292.9v1.329c-.774.086-1.292.442-1.292.9s.536.821,1.292.9v1.162a1.273,1.273,0,0,0,1.3,1.243h12.11a1.273,1.273,0,0,0,1.3-1.242V85.238a1.274,1.274,0,0,0-1.3-1.243Zm-14.1,3.3c0-.068.224-.25.694-.319v.644c-.451-.064-.694-.242-.694-.325Zm0,3.132c0-.068.224-.25.694-.319v.642c-.437-.063-.694-.237-.694-.322Zm0,3.131c0-.068.224-.25.694-.319v.642c-.437-.063-.694-.236-.694-.322Zm0,3.131c0-.067.224-.249.694-.319v.644c-.451-.063-.694-.241-.694-.325Zm1.292,2.066V97.595c.8-.066,1.376-.432,1.376-.909a.3.3,0,0,0-.6,0c0,.088-.272.285-.778.337v-2.56c.8-.066,1.376-.433,1.376-.907a.3.3,0,0,0-.6,0c0,.091-.289.282-.778.335V91.331c.8-.066,1.376-.433,1.376-.907a.3.3,0,0,0-.6,0c0,.091-.289.282-.778.335V88.2c.8-.066,1.376-.432,1.376-.907a.3.3,0,0,0-.6,0c0,.087-.272.285-.778.336v-2.39a.688.688,0,0,1,.7-.672h1.452V99.423H165.1a.687.687,0,0,1-.7-.671Zm13.514,0a.688.688,0,0,1-.7.671H167.151V84.566h10.061a.688.688,0,0,1,.7.672Z" fill="#004669"/>
    <path id="Path_648" data-name="Path 648" d="M321.91,350.66h6.626v.615H321.91Z" transform="translate(-152.73 -255.812)" fill="#004669"/>
    <path id="Path_649" data-name="Path 649" d="M321.91,403.54h4.246v.615H321.91Z" transform="translate(-152.666 -306.727)" fill="#004669"/>
    <path id="Path_650" data-name="Path 650" d="M361.955,160.178a1.626,1.626,0,1,0-1.626-1.626A1.629,1.629,0,0,0,361.955,160.178Zm0-2.638a1.011,1.011,0,1,1-1.011,1.012A1.013,1.013,0,0,1,361.955,157.541Z" transform="translate(-189.437 -70.008)" fill="#004669"/>
    <path id="Path_651" data-name="Path 651" d="M333.536,239.893h5.018a.308.308,0,0,0,.307-.307c0-1.406-.949-2.245-2.539-2.245-.131,0-.229.006-.278.011s-.147-.011-.278-.011c-1.589,0-2.538.839-2.538,2.245a.307.307,0,0,0,.307.307Zm2.231-1.937c.143,0,.236.01.243.01a.328.328,0,0,0,.069,0c.008,0,.1-.01.243-.01a1.686,1.686,0,0,1,1.9,1.323h-4.362a1.686,1.686,0,0,1,1.9-1.323Z" transform="translate(-163.543 -147.17)" fill="#004669"/>
  </g>
</svg>
