<svg xmlns="http://www.w3.org/2000/svg" width="16" height="16" viewBox="0 0 16 16">
  <g id="noun-orders-list-4194762" transform="translate(-73.607 -11.855)">
    <path id="Path_678" data-name="Path 678" d="M325.216,139.142a.2.2,0,0,1-.115-.036.231.231,0,0,1-.1-.191v-8.7a.228.228,0,0,1,.124-.206l7.014-3.421a.2.2,0,0,1,.2.015.231.231,0,0,1,.1.191v4.124a.212.212,0,1,1-.423,0v-3.772l-6.591,3.215v8.206l1.906-.93a.206.206,0,0,1,.28.112.232.232,0,0,1-.1.3l-2.206,1.076a.2.2,0,0,1-.088.021Z" transform="translate(-243.806 -111.287)" fill="#004669"/>
    <path id="Path_679" data-name="Path 679" d="M107.848,344.91a.194.194,0,0,1-.088-.021l-1.619-.789a.228.228,0,0,1-.124-.206v-1.578a.232.232,0,0,1,.1-.191.2.2,0,0,1,.2-.015l1.619.79a.228.228,0,0,1,.124.206v1.578a.232.232,0,0,1-.1.191A.216.216,0,0,1,107.848,344.91Zm-1.407-1.161,1.2.583v-1.08l-1.2-.583Z" transform="translate(-31.506 -320.383)" fill="#004669"/>
    <path id="Path_680" data-name="Path 680" d="M80.846,139.089a.194.194,0,0,1-.088-.021l-7.014-3.421a.228.228,0,0,1-.124-.206v-8.7a.232.232,0,0,1,.1-.191.2.2,0,0,1,.2-.015l7.014,3.421a.228.228,0,0,1,.124.206v8.7a.232.232,0,0,1-.1.191.2.2,0,0,1-.115.037Zm-6.8-3.793,6.591,3.215V130.3l-6.591-3.215Z" transform="translate(-0.013 -111.235)" fill="#004669"/>
    <path id="Path_681" data-name="Path 681" d="M167.041,236.738a.2.2,0,0,1-.088-.021l-1.553-.758a.233.233,0,0,1-.1-.3.206.206,0,0,1,.28-.112l1.553.758a.233.233,0,0,1,.1.3A.211.211,0,0,1,167.041,236.738Z" transform="translate(-89.002 -217)" fill="#004669"/>
    <path id="Path_682" data-name="Path 682" d="M88.413,15.729a.211.211,0,0,1-.091-.021l-7.2-3.378-7.2,3.378a.217.217,0,0,1-.291-.112.228.228,0,0,1,.109-.3l7.294-3.421a.216.216,0,0,1,.182,0L88.506,15.3a.229.229,0,0,1,.109.3.22.22,0,0,1-.2.133Z" transform="translate(0 0)" fill="#004669"/>
    <path id="Path_683" data-name="Path 683" d="M165.483,57.57a.211.211,0,0,1-.193-.133.232.232,0,0,1,.1-.3l7.014-3.421a.206.206,0,0,1,.28.112.232.232,0,0,1-.1.3l-7.014,3.421a.2.2,0,0,1-.088.021Z" transform="translate(-88.923 -40.593)" fill="#004669"/>
    <path id="Path_684" data-name="Path 684" d="M221.166,82.925a.219.219,0,0,1-.212-.226.228.228,0,0,1,.129-.209l7.008-3.419a.206.206,0,0,1,.28.112.232.232,0,0,1-.1.3L221.253,82.9a.206.206,0,0,1-.088.021Z" transform="translate(-142.94 -65.191)" fill="#004669"/>
    <path id="Path_685" data-name="Path 685" d="M221.162,196.221a.219.219,0,0,1-.212-.226v-2a.212.212,0,1,1,.423,0v2A.219.219,0,0,1,221.162,196.221Z" transform="translate(-143.075 -176.482)" fill="#004669"/>
    <path id="Path_686" data-name="Path 686" d="M165.486,170.821a.219.219,0,0,1-.212-.226v-2a.212.212,0,1,1,.423,0v2A.219.219,0,0,1,165.486,170.821Z" transform="translate(-89.11 -151.84)" fill="#004669"/>
    <path id="Path_687" data-name="Path 687" d="M409.694,272.541h-5.1a.574.574,0,0,1-.553-.592V265.34a.574.574,0,0,1,.553-.592h1.179a.227.227,0,0,1,0,.453H404.6a.135.135,0,0,0-.13.139v6.609a.135.135,0,0,0,.13.139h5.1a.135.135,0,0,0,.13-.139V265.34a.135.135,0,0,0-.13-.139h-1.179a.227.227,0,0,1,0-.453h1.179a.574.574,0,0,1,.553.592v6.609a.574.574,0,0,1-.554.592Z" transform="translate(-320.641 -245.348)" fill="#004669"/>
    <path id="Path_688" data-name="Path 688" d="M485.54,230.035a.219.219,0,0,1-.212-.226v-.391a.017.017,0,0,0-.016-.017h-.863a.017.017,0,0,0-.016.017v.391a.212.212,0,1,1-.423,0v-.391a.457.457,0,0,1,.44-.47h.863a.457.457,0,0,1,.44.47v.391A.22.22,0,0,1,485.54,230.035Z" transform="translate(-398.376 -210.615)" fill="#004669"/>
    <path id="Path_689" data-name="Path 689" d="M461.114,251.665h-1.931a.638.638,0,0,1-.615-.657v-.161a.638.638,0,0,1,.615-.658h1.931a.638.638,0,0,1,.615.658v.161A.638.638,0,0,1,461.114,251.665Zm-1.931-1.022a.2.2,0,0,0-.191.2v.161a.2.2,0,0,0,.191.2h1.931a.2.2,0,0,0,.191-.2v-.161a.2.2,0,0,0-.191-.2Z" transform="translate(-373.644 -231.224)" fill="#004669"/>
    <path id="Path_690" data-name="Path 690" d="M487.431,346.861h-2.458a.227.227,0,0,1,0-.453h2.458a.227.227,0,0,1,0,.453Z" transform="translate(-399.107 -324.572)" fill="#004669"/>
    <path id="Path_691" data-name="Path 691" d="M487.431,388.231h-2.458a.227.227,0,0,1,0-.453h2.458a.227.227,0,0,1,0,.453Z" transform="translate(-399.107 -364.708)" fill="#004669"/>
    <path id="Path_692" data-name="Path 692" d="M487.431,429.6h-2.458a.227.227,0,0,1,0-.453h2.458a.227.227,0,0,1,0,.453Z" transform="translate(-399.107 -404.844)" fill="#004669"/>
    <path id="Path_693" data-name="Path 693" d="M450.477,345.156a.255.255,0,1,1-.254-.272.263.263,0,0,1,.254.272" transform="translate(-365.455 -323.094)" fill="#004669"/>
    <path id="Path_694" data-name="Path 694" d="M450.477,386.526a.255.255,0,1,1-.254-.272.263.263,0,0,1,.254.272" transform="translate(-365.455 -363.23)" fill="#004669"/>
    <path id="Path_695" data-name="Path 695" d="M450.477,427.9a.255.255,0,1,1-.254-.272.263.263,0,0,1,.254.272" transform="translate(-365.455 -403.369)" fill="#004669"/>
  </g>
</svg>
